grf
version=1
nRows=14
nColumns=37
inDegrees=no
endheader
time	ground_force_1_vx	ground_force_1_vy	ground_force_1_vz	ground_force_1_px	ground_force_1_py	ground_force_1_pz	ground_moment_1_mx	ground_moment_1_my	ground_moment_1_mz	ground_force_2_vx	ground_force_2_vy	ground_force_2_vz	ground_force_2_px	ground_force_2_py	ground_force_2_pz	ground_moment_2_mx	ground_moment_2_my	ground_moment_2_mz	ground_force_3_vx	ground_force_3_vy	ground_force_3_vz	ground_force_3_px	ground_force_3_py	ground_force_3_pz	ground_moment_3_mx	ground_moment_3_my	ground_moment_3_mz	ground_force_4_vx	ground_force_4_vy	ground_force_4_vz	ground_force_4_px	ground_force_4_py	ground_force_4_pz	ground_moment_4_mx	ground_moment_4_my	ground_moment_4_mz
      3.68000000	      0.00000000	     -0.00000000	      0.00000000	      0.00000000	      0.00000000	      0.00000000	      0.00000000	      0.00000000	      0.00000000	      0.26548401	      9.61396313	   -708.76708984	   -277.79360341	  -1077.45902084	      0.00000000	      0.00000000	      0.00000000	   1784.89038515	      0.00000000	     -0.00000000	      0.00000000	      0.00000000	      0.00000000	      0.00000000	      0.00000000	      0.00000000	      0.00000000	    -34.96444563	     15.91219254	     75.60593414	    603.85348479	   -566.00292870	      0.00000000	      0.00000000	      0.00000000	     70.17565759
      3.69000000	      0.00000000	     -0.00000000	      0.00000000	      0.00000000	      0.00000000	      0.00000000	      0.00000000	      0.00000000	      0.00000000	     -1.30301666	     10.36530495	   -688.63916016	   -276.30322484	  -1079.45035605	      0.00000000	      0.00000000	     -0.00000000	   1527.30028921	      0.00000000	     -0.00000000	      0.00000000	      0.00000000	      0.00000000	      0.00000000	      0.00000000	      0.00000000	      0.00000000	    -34.96575406	     16.00202294	     76.45851898	    601.76331057	   -565.16698490	      0.00000000	      0.00000000	      0.00000000	     31.06678117
      3.70000000	      0.00000000	     -0.00000000	      0.00000000	      0.00000000	      0.00000000	      0.00000000	      0.00000000	      0.00000000	      0.00000000	     -3.68363261	     10.31314850	   -663.91967773	   -274.21782552	  -1079.13329337	      0.00000000	      0.00000000	      0.00000000	   1152.36189479	      0.00000000	     -0.00000000	      0.00000000	      0.00000000	      0.00000000	      0.00000000	      0.00000000	      0.00000000	      0.00000000	    -35.14404157	     15.96325800	     76.35688019	    602.72152941	   -560.91468932	      0.00000000	      0.00000000	     -0.00000000	    -89.52980660
      3.71000000	      0.00000000	     -0.00000000	      0.00000000	      0.00000000	      0.00000000	      0.00000000	      0.00000000	      0.00000000	      0.00000000	     -4.48633432	      9.93177986	   -636.52947998	   -273.37515609	  -1079.69250493	      0.00000000	      0.00000000	      0.00000000	    841.79461605	      0.00000000	     -0.00000000	      0.00000000	      0.00000000	      0.00000000	      0.00000000	      0.00000000	      0.00000000	      0.00000000	    -34.77376415	     16.18165129	     75.50479889	    604.34178723	   -562.68346815	      0.00000000	      0.00000000	     -0.00000000	    -83.32781689
      3.72000000	      0.00000000	     -0.00000000	      0.00000000	      0.00000000	      0.00000000	      0.00000000	      0.00000000	      0.00000000	      0.00000000	     -2.90546274	      9.14220142	   -607.67028809	   -272.81367769	  -1080.54458697	      0.00000000	      0.00000000	      0.00000000	    661.45274072	      0.00000000	     -0.00000000	      0.00000000	      0.00000000	      0.00000000	      0.00000000	      0.00000000	      0.00000000	      0.00000000	    -35.06771711	     15.95012590	     74.95172882	    608.77154383	   -564.22814192	      0.00000000	      0.00000000	     -0.00000000	    -95.34914048
      3.73000000	      0.00000000	     -0.00000000	      0.00000000	      0.00000000	      0.00000000	      0.00000000	      0.00000000	      0.00000000	      0.00000000	     -0.93031114	      8.21278381	   -575.38079834	   -272.78367470	  -1081.48047515	      0.00000000	      0.00000000	      0.00000000	    627.23776885	      0.00000000	     -0.00000000	      0.00000000	      0.00000000	      0.00000000	      0.00000000	      0.00000000	      0.00000000	      0.00000000	    -34.81237653	     16.05302734	     76.00670624	    604.06860951	   -563.61184006	      0.00000000	      0.00000000	     -0.00000000	   -134.69916881
      3.74000000	      0.00000000	     -0.00000000	      0.00000000	      0.00000000	      0.00000000	      0.00000000	      0.00000000	      0.00000000	      0.00000000	     -1.32525122	      6.92694855	   -546.07171631	   -271.84029980	  -1081.13703723	      0.00000000	      0.00000000	      0.00000000	    247.02246691	      0.00000000	     -0.00000000	      0.00000000	      0.00000000	      0.00000000	      0.00000000	      0.00000000	      0.00000000	      0.00000000	    -34.88880017	     16.11778564	     75.35657501	    606.90676004	   -563.35840059	      0.00000000	      0.00000000	     -0.00000000	   -166.56735726
      3.75000000	      0.00000000	     -0.00000000	      0.00000000	      0.00000000	      0.00000000	      0.00000000	      0.00000000	      0.00000000	      0.00000000	     -1.61884630	      5.39891195	   -518.77398682	   -271.77811785	  -1081.53074330	      0.00000000	      0.00000000	      0.00000000	    268.48782939	      0.00000000	     -0.00000000	      0.00000000	      0.00000000	      0.00000000	      0.00000000	      0.00000000	      0.00000000	      0.00000000	    -34.75945902	     16.33617705	     76.26092529	    601.49774793	   -563.19455251	      0.00000000	      0.00000000	     -0.00000000	   -175.93964339
      3.76000000	      0.00000000	     -0.00000000	      0.00000000	      0.00000000	      0.00000000	      0.00000000	      0.00000000	      0.00000000	      0.00000000	     -0.66249263	      4.50766563	   -494.35946655	   -270.49993830	  -1081.82573966	      0.00000000	      0.00000000	      0.00000000	    156.07704628	      0.00000000	     -0.00000000	      0.00000000	      0.00000000	      0.00000000	      0.00000000	      0.00000000	      0.00000000	      0.00000000	    -35.09233335	     16.02808496	     75.26158142	    607.33365018	   -563.32058666	      0.00000000	      0.00000000	     -0.00000000	   -103.21179199
      3.77000000	      0.00000000	     -0.00000000	      0.00000000	      0.00000000	      0.00000000	      0.00000000	      0.00000000	      0.00000000	      0.00000000	      0.25631610	      4.15321445	   -475.43292236	   -270.41169791	  -1081.45652137	      0.00000000	     -0.00000000	      0.00000000	     16.06923027	      0.00000000	     -0.00000000	      0.00000000	      0.00000000	      0.00000000	      0.00000000	      0.00000000	      0.00000000	      0.00000000	    -34.73428201	     16.49170798	     75.91201019	    605.37522485	   -564.56566852	      0.00000000	      0.00000000	     -0.00000000	   -231.81556673
      3.78000000	      0.00000000	     -0.00000000	      0.00000000	      0.00000000	      0.00000000	      0.00000000	      0.00000000	      0.00000000	      0.00000000	      1.83554387	      4.15128613	   -460.00012207	   -270.48976879	  -1081.39385551	      0.00000000	     -0.00000000	     -0.00000000	    -20.87265722	      0.00000000	     -0.00000000	      0.00000000	      0.00000000	      0.00000000	      0.00000000	      0.00000000	      0.00000000	      0.00000000	    -34.69619229	     16.05269545	     75.84682465	    603.06384916	   -565.36125896	      0.00000000	      0.00000000	      0.00000000	    -75.29595481
      3.79000000	      0.00000000	     -0.00000000	      0.00000000	      0.00000000	      0.00000000	      0.00000000	      0.00000000	      0.00000000	      0.00000000	      3.18734360	      3.59527588	   -450.07037354	   -270.01351975	  -1078.06169405	      0.00000000	      0.00000000	     -0.00000000	    -37.66613363	      0.00000000	     -0.00000000	      0.00000000	      0.00000000	      0.00000000	      0.00000000	      0.00000000	      0.00000000	      0.00000000	    -34.99207929	     15.94876691	     75.19791412	    605.26157543	   -565.34264599	      0.00000000	      0.00000000	      0.00000000	     80.44913411
      3.80000000	      0.00000000	     -0.00000000	      0.00000000	      0.00000000	      0.00000000	      0.00000000	      0.00000000	      0.00000000	      0.00000000	      4.35758400	      1.88545716	   -451.06512451	   -270.42734705	  -1077.60795418	      0.00000000	      0.00000000	     -0.00000000	    -33.66598210	      0.00000000	     -0.00000000	      0.00000000	      0.00000000	      0.00000000	      0.00000000	      0.00000000	      0.00000000	      0.00000000	    -34.90277342	     15.96258850	     75.65759277	    604.85590827	   -564.09056377	      0.00000000	      0.00000000	     -0.00000000	    -51.63454552
      3.81000000	      0.00000000	     -0.00000000	      0.00000000	      0.00000000	      0.00000000	      0.00000000	      0.00000000	      0.00000000	      0.00000000	      6.36765575	     -0.16439804	   -453.18478394	   -271.26556053	  -1073.54901983	      0.00000000	      0.00000000	      0.00000000	    315.40582049	      0.00000000	     -0.00000000	      0.00000000	      0.00000000	      0.00000000	      0.00000000	      0.00000000	      0.00000000	      0.00000000	    -34.86057141	     16.04298896	     75.65787506	    606.13834825	   -563.87232224	      0.00000000	      0.00000000	     -0.00000000	     -2.99740769
